<?xml version="1.0" standalone="no"?>
<!DOCTYPE svg PUBLIC "-//W3C//DTD SVG 20010904//EN"
 "http://www.w3.org/TR/2001/REC-SVG-20010904/DTD/svg10.dtd">
<svg version="1.0" xmlns="http://www.w3.org/2000/svg"
 width="112.000000pt" height="137.000000pt" viewBox="0 0 112.000000 137.000000"
 preserveAspectRatio="xMidYMid meet">
<metadata>
Created by potrace 1.16, written by Peter Selinger 2001-2019
</metadata>
<g transform="translate(0.000000,137.000000) scale(0.100000,-0.100000)"
fill="#fff" stroke="none">
<path d="M675 1268 c89 -68 132 -108 152 -137 74 -109 15 -215 -213 -387 -161
-121 -201 -173 -176 -228 15 -32 65 -53 152 -61 97 -9 217 -30 254 -45 25 -9
28 -13 15 -25 -20 -20 -152 -71 -260 -100 -117 -32 -294 -44 -354 -23 -27 9
-42 21 -49 40 -10 30 10 76 148 333 138 256 231 516 208 583 l-9 27 -13 -40
c-40 -123 -146 -316 -321 -586 -122 -187 -149 -245 -149 -315 0 -91 48 -147
156 -185 115 -40 385 -22 562 37 149 50 237 108 271 177 25 52 26 78 4 124
-32 68 -149 117 -308 129 -44 3 -86 7 -93 10 -7 2 37 52 101 116 160 160 208
262 177 377 -21 78 -148 180 -245 196 l-40 6 30 -23z"/>
</g>
</svg>
